<svg width="20" height="20" viewBox="0 0 20 20" fill="none" xmlns="http://www.w3.org/2000/svg">
<path fill-rule="evenodd" clip-rule="evenodd" d="M18.8652 19.9363C19.4727 19.9363 19.9654 19.4436 19.9654 18.836V1.10035C19.9654 0.492565 19.4727 0 18.8652 0H1.12959C0.521804 0 0.0292969 0.492565 0.0292969 1.10035V18.836C0.0292969 19.4436 0.521804 19.9363 1.12959 19.9363H18.8652Z" fill="black"/>
<path fill-rule="evenodd" clip-rule="evenodd" d="M13.336 19.9808V12.2605H15.9275L16.3154 9.25164H13.336V7.33072C13.336 6.4596 13.5778 5.86594 14.8271 5.86594L16.4204 5.86519V3.17418C16.1448 3.13758 15.199 3.05562 14.0987 3.05562C11.8015 3.05562 10.229 4.45775 10.229 7.0328V9.25164H7.63086V12.2605H10.229V19.9808H13.336Z" fill="white"/>
</svg>
