<svg width="20" height="21" viewBox="0 0 20 21" fill="none" xmlns="http://www.w3.org/2000/svg">
<path fill-rule="evenodd" clip-rule="evenodd" d="M6.8798 0.557377C9.07652 -0.202186 11.541 -0.185793 13.7268 0.617486C14.9399 1.06557 16.0492 1.76503 17 2.64481C16.6831 2.98907 16.3388 3.31148 16.011 3.64481C15.388 4.26776 14.765 4.89071 14.1421 5.51366C13.5246 4.9235 12.7705 4.47541 11.9508 4.22404C10.9891 3.93443 9.95084 3.89071 8.96723 4.10382C7.81969 4.34973 6.75412 4.95082 5.92898 5.79235C5.26232 6.46448 4.75958 7.29508 4.45357 8.19126C3.34428 7.32787 2.23499 6.46994 1.12024 5.60656C2.2951 3.25683 4.40439 1.40437 6.8798 0.557377Z" fill="black"/>
<path fill-rule="evenodd" clip-rule="evenodd" d="M0.240407 8.153C0.420734 7.26776 0.715816 6.40437 1.12565 5.59563C2.23494 6.45901 3.34423 7.31694 4.45899 8.18033C4.02183 9.45355 4.02183 10.8689 4.45899 12.1366C3.3497 13 2.24041 13.8634 1.13112 14.7213C0.103794 12.7158 -0.207681 10.3607 0.240407 8.153Z" fill="black"/>
<path fill-rule="evenodd" clip-rule="evenodd" d="M10.2021 8.25683H19.765C20.0819 10.0437 20.0109 11.9071 19.5081 13.6557C19.0436 15.2568 18.1639 16.7432 16.9344 17.8743C15.8579 17.0382 14.7814 16.2022 13.7049 15.3661C14.7704 14.6503 15.5245 13.4918 15.7376 12.224H10.1967C10.2021 10.9016 10.2021 9.57923 10.2021 8.25683Z" fill="black"/>
<path fill-rule="evenodd" clip-rule="evenodd" d="M1.12024 14.7268C2.22953 13.8689 3.33882 13.0055 4.44811 12.1421C4.87434 13.3934 5.69401 14.5027 6.77598 15.2623C7.45357 15.7377 8.22953 16.0765 9.03827 16.2404C9.83609 16.4044 10.6612 16.3825 11.4645 16.2459C12.2623 16.1038 13.0328 15.8142 13.7049 15.3607C14.7814 16.1967 15.8579 17.0328 16.9344 17.8689C15.7705 18.9454 14.3115 19.6776 12.7705 20.0328C11.0656 20.4208 9.26232 20.4317 7.56833 19.9781C6.22406 19.6229 4.96177 18.9836 3.87434 18.1148C2.73226 17.2076 1.78144 16.0382 1.12024 14.7268Z" fill="black"/>
</svg>
