<svg width="20" height="20" viewBox="0 0 20 20" fill="none" xmlns="http://www.w3.org/2000/svg">
<path fill-rule="evenodd" clip-rule="evenodd" d="M0 0H9.48718C9.48661 3.16239 9.48718 6.32479 9.48661 9.48718H0V0Z" fill="black"/>
<path fill-rule="evenodd" clip-rule="evenodd" d="M10.4558 0H19.943C19.943 3.16239 19.9436 6.32479 19.9424 9.48718C16.7806 9.48661 13.6182 9.48718 10.4564 9.48718C10.4553 6.32479 10.4558 3.16239 10.4558 0Z" fill="black"/>
<path fill-rule="evenodd" clip-rule="evenodd" d="M0 10.4553C3.16239 10.4564 6.32479 10.4547 9.48718 10.4564C9.48775 13.6188 9.48718 16.7806 9.48718 19.943H0V10.4553Z" fill="black"/>
<path fill-rule="evenodd" clip-rule="evenodd" d="M10.4564 10.4564C13.6182 10.4553 16.7806 10.4558 19.943 10.4558V19.943H10.4558C10.4564 16.7806 10.4552 13.6182 10.4564 10.4564Z" fill="black"/>
</svg>
